<svg width="188" height="60" viewBox="0 0 188 60" fill="none" xmlns="http://www.w3.org/2000/svg">
<path fill-rule="evenodd" clip-rule="evenodd" d="M4 0H181C183.209 0 185 1.79086 185 4V6C185 8.20914 187.398 10.1463 187.916 12.2938C187.971 12.5203 188 12.7568 188 13V47C188 47.2432 187.971 47.4797 187.916 47.7062C187.398 49.8537 185 51.7909 185 54V56C185 58.2091 183.209 60 181 60H15.0266C13.7538 60 12.5571 59.3943 11.8034 58.3687L0.776794 43.3647C0.272156 42.678 0 41.8481 0 40.9959V4C0 1.79086 1.79086 0 4 0Z" fill="#0DE6BE"/>
</svg>
